<mxfile host="app.diagrams.net" modified="2024-03-25T04:45:37.236Z" agent="Mozilla/5.0 (Windows NT 10.0; Win64; x64) AppleWebKit/537.36 (KHTML, like Gecko) Chrome/122.0.0.0 Safari/537.36" etag="jg28qhBHEiC0JLwjfKhL" version="24.1.0" type="device">
  <diagram name="05 [예제] 구체화(Width Code)" id="Okhfxqb5AKQBt1zYMtm1">
    <mxGraphModel dx="1674" dy="818" grid="1" gridSize="10" guides="1" tooltips="1" connect="1" arrows="1" fold="1" page="1" pageScale="1" pageWidth="3300" pageHeight="4681" math="0" shadow="0">
      <root>
        <mxCell id="mxSxCT3K7TG5ama-A4u--0" />
        <mxCell id="mxSxCT3K7TG5ama-A4u--1" parent="mxSxCT3K7TG5ama-A4u--0" />
        <mxCell id="mxSxCT3K7TG5ama-A4u--28" value="View" style="text;html=1;align=center;verticalAlign=middle;resizable=0;points=[];autosize=1;strokeColor=none;fillColor=none;" parent="mxSxCT3K7TG5ama-A4u--1" vertex="1">
          <mxGeometry x="35" y="1400" width="50" height="30" as="geometry" />
        </mxCell>
        <mxCell id="mxSxCT3K7TG5ama-A4u--29" value="" style="rounded=0;whiteSpace=wrap;html=1;" parent="mxSxCT3K7TG5ama-A4u--1" vertex="1">
          <mxGeometry x="10" y="1430" width="470" height="960" as="geometry" />
        </mxCell>
        <mxCell id="mxSxCT3K7TG5ama-A4u--34" value="" style="rounded=0;whiteSpace=wrap;html=1;" parent="mxSxCT3K7TG5ama-A4u--1" vertex="1">
          <mxGeometry x="35" y="1880" width="415" height="500" as="geometry" />
        </mxCell>
        <mxCell id="mxSxCT3K7TG5ama-A4u--35" value="관리자 Viewer" style="text;html=1;align=center;verticalAlign=middle;resizable=0;points=[];autosize=1;strokeColor=none;fillColor=none;" parent="mxSxCT3K7TG5ama-A4u--1" vertex="1">
          <mxGeometry x="20" y="1850" width="100" height="30" as="geometry" />
        </mxCell>
        <mxCell id="mxSxCT3K7TG5ama-A4u--64" value="&lt;p style=&quot;margin:0px;margin-top:4px;text-align:center;&quot;&gt;&lt;b&gt;로그인화면 Class&lt;/b&gt;&lt;/p&gt;&lt;hr size=&quot;1&quot;&gt;&lt;p style=&quot;margin:0px;margin-left:4px;&quot;&gt;+ field: Type&lt;/p&gt;&lt;hr size=&quot;1&quot;&gt;&lt;p style=&quot;margin:0px;margin-left:4px;&quot;&gt;+ method(): Type&lt;/p&gt;" style="verticalAlign=top;align=left;overflow=fill;fontSize=12;fontFamily=Helvetica;html=1;whiteSpace=wrap;" parent="mxSxCT3K7TG5ama-A4u--1" vertex="1">
          <mxGeometry x="52.5" y="1900" width="155" height="100" as="geometry" />
        </mxCell>
        <mxCell id="mxSxCT3K7TG5ama-A4u--65" value="&lt;p style=&quot;margin:0px;margin-top:4px;text-align:center;&quot;&gt;&lt;b&gt;메인 화면 Class&lt;/b&gt;&lt;/p&gt;&lt;hr size=&quot;1&quot;&gt;&lt;p style=&quot;margin:0px;margin-left:4px;&quot;&gt;+ field: Type&lt;/p&gt;&lt;hr size=&quot;1&quot;&gt;&lt;p style=&quot;margin:0px;margin-left:4px;&quot;&gt;+ method(): Type&lt;/p&gt;" style="verticalAlign=top;align=left;overflow=fill;fontSize=12;fontFamily=Helvetica;html=1;whiteSpace=wrap;" parent="mxSxCT3K7TG5ama-A4u--1" vertex="1">
          <mxGeometry x="265" y="2010" width="160" height="130" as="geometry" />
        </mxCell>
        <mxCell id="mxSxCT3K7TG5ama-A4u--66" value="&lt;p style=&quot;margin:0px;margin-top:4px;text-align:center;&quot;&gt;&lt;span&gt;프로젝트(등록, 수정, 예약) 관리 Class&lt;/span&gt;&lt;/p&gt;&lt;hr size=&quot;1&quot;&gt;&lt;p style=&quot;margin:0px;margin-left:4px;&quot;&gt;+ field: Type&lt;/p&gt;&lt;hr size=&quot;1&quot;&gt;&lt;p style=&quot;margin:0px;margin-left:4px;&quot;&gt;+ method(): Type&lt;/p&gt;" style="verticalAlign=top;align=left;overflow=fill;fontSize=12;fontFamily=Helvetica;html=1;whiteSpace=wrap;fontStyle=1" parent="mxSxCT3K7TG5ama-A4u--1" vertex="1">
          <mxGeometry x="42.5" y="2145" width="235" height="90" as="geometry" />
        </mxCell>
        <mxCell id="mxSxCT3K7TG5ama-A4u--67" value="" style="endArrow=none;html=1;rounded=0;exitX=1;exitY=1;exitDx=0;exitDy=0;" parent="mxSxCT3K7TG5ama-A4u--1" edge="1">
          <mxGeometry width="50" height="50" relative="1" as="geometry">
            <mxPoint x="205" y="2005" as="sourcePoint" />
            <mxPoint x="265" y="2055" as="targetPoint" />
          </mxGeometry>
        </mxCell>
        <mxCell id="mxSxCT3K7TG5ama-A4u--68" value="" style="endArrow=none;html=1;rounded=0;exitX=1;exitY=0;exitDx=0;exitDy=0;" parent="mxSxCT3K7TG5ama-A4u--1" edge="1">
          <mxGeometry width="50" height="50" relative="1" as="geometry">
            <mxPoint x="220" y="2145" as="sourcePoint" />
            <mxPoint x="265" y="2055" as="targetPoint" />
          </mxGeometry>
        </mxCell>
        <mxCell id="RzXD2tQl2ajDiOPj55xI-0" value="&lt;p style=&quot;margin:0px;margin-top:4px;text-align:center;&quot;&gt;&lt;b&gt;회원(구매자, 판매자) 관리 Class&lt;/b&gt;&lt;/p&gt;&lt;hr size=&quot;1&quot;&gt;&lt;p style=&quot;margin:0px;margin-left:4px;&quot;&gt;+ field: Type&lt;/p&gt;&lt;hr size=&quot;1&quot;&gt;&lt;p style=&quot;margin:0px;margin-left:4px;&quot;&gt;+ method(): Type&lt;/p&gt;" style="verticalAlign=top;align=left;overflow=fill;fontSize=12;fontFamily=Helvetica;html=1;whiteSpace=wrap;" parent="mxSxCT3K7TG5ama-A4u--1" vertex="1">
          <mxGeometry x="40" y="2040" width="180" height="90" as="geometry" />
        </mxCell>
        <mxCell id="RzXD2tQl2ajDiOPj55xI-1" value="알림 설정을 할 프로젝트도 여기서 관리 할 것인기&lt;div&gt;&lt;br&gt;&lt;/div&gt;" style="text;html=1;align=center;verticalAlign=middle;resizable=0;points=[];autosize=1;strokeColor=none;fillColor=none;" parent="mxSxCT3K7TG5ama-A4u--1" vertex="1">
          <mxGeometry x="40" y="2235" width="290" height="40" as="geometry" />
        </mxCell>
        <mxCell id="RzXD2tQl2ajDiOPj55xI-2" value="&lt;p style=&quot;margin:0px;margin-top:4px;text-align:center;&quot;&gt;&lt;span&gt;커뮤니티(답변, 삭제)&amp;nbsp; 관리 Class&lt;/span&gt;&lt;/p&gt;&lt;hr size=&quot;1&quot;&gt;&lt;p style=&quot;margin:0px;margin-left:4px;&quot;&gt;+ field: Type&lt;/p&gt;&lt;hr size=&quot;1&quot;&gt;&lt;p style=&quot;margin:0px;margin-left:4px;&quot;&gt;+ method(): Type&lt;/p&gt;" style="verticalAlign=top;align=left;overflow=fill;fontSize=12;fontFamily=Helvetica;html=1;whiteSpace=wrap;fontStyle=1" parent="mxSxCT3K7TG5ama-A4u--1" vertex="1">
          <mxGeometry x="47.5" y="2270" width="235" height="90" as="geometry" />
        </mxCell>
      </root>
    </mxGraphModel>
  </diagram>
</mxfile>
